<?xml version="1.0" standalone="no"?>
<!DOCTYPE svg PUBLIC "-//W3C//DTD SVG 20010904//EN"
 "http://www.w3.org/TR/2001/REC-SVG-20010904/DTD/svg10.dtd">
<svg version="1.0" xmlns="http://www.w3.org/2000/svg"
 width="512.000000pt" height="512.000000pt" viewBox="0 0 512.000000 512.000000"
 preserveAspectRatio="xMidYMid meet">

<g transform="translate(0.000000,512.000000) scale(0.100000,-0.100000)"
fill="#000000" stroke="none">
<path d="M2421 5083 c19 -21 52 -65 74 -98 22 -33 60 -89 85 -124 117 -166
330 -603 383 -786 19 -66 21 -103 24 -605 4 -516 4 -539 -17 -645 -47 -238
-126 -392 -305 -598 -38 -44 -94 -110 -123 -146 -63 -79 -233 -247 -333 -328
-82 -67 -179 -133 -195 -133 -6 0 -17 -7 -24 -15 -19 -23 -146 -80 -333 -151
-52 -19 -133 -42 -482 -135 -38 -10 -81 -19 -93 -19 -13 0 -47 -6 -75 -14 -29
-7 -81 -18 -117 -24 -166 -28 -250 -43 -310 -57 -36 -8 -105 -20 -155 -26
-182 -23 -337 -47 -388 -60 -36 -10 -37 -11 -37 -58 l0 -49 38 9 c20 5 84 17
142 25 58 9 148 22 200 30 52 8 127 19 165 24 39 5 93 14 120 19 28 6 76 15
108 21 146 26 171 31 225 41 31 6 77 15 102 20 25 6 68 14 97 18 28 5 77 18
110 29 56 19 98 31 233 67 85 23 204 63 257 86 24 11 45 19 48 19 15 0 201 98
272 143 98 62 185 133 314 256 95 90 109 100 109 82 0 -5 18 -47 39 -93 22
-45 53 -118 70 -160 17 -43 49 -117 71 -164 22 -47 40 -87 40 -89 0 -2 13 -32
28 -67 16 -35 36 -81 44 -103 9 -22 29 -74 46 -115 89 -223 165 -443 202 -585
23 -88 55 -212 72 -275 17 -63 34 -133 38 -155 18 -86 25 -95 75 -95 31 0 45
4 45 13 0 8 -18 85 -41 173 -23 87 -45 175 -49 194 -42 191 -109 406 -185 600
-8 19 -39 100 -71 180 -53 136 -140 340 -291 682 -76 171 -77 156 33 278 83
93 139 163 172 215 14 22 28 42 32 45 12 8 98 192 106 225 4 17 10 35 14 40 8
10 22 71 42 185 16 87 22 1015 8 1135 -12 102 -48 239 -75 291 -8 16 -15 32
-15 35 0 9 -131 284 -176 372 -50 96 -106 187 -203 332 l-85 125 -70 0 -70 0
35 -37z"/>
<path d="M1772 4348 c-28 -28 -7 -78 33 -78 27 0 45 18 45 45 0 27 -18 45 -45
45 -12 0 -26 -5 -33 -12z"/>
<path d="M2259 3160 c-10 -6 -41 -47 -70 -92 -29 -46 -74 -110 -101 -142 -77
-93 -255 -245 -383 -327 -155 -99 -196 -120 -343 -170 -266 -91 -258 -89 -525
-120 -122 -14 -405 -6 -488 14 -103 25 -172 54 -251 106 -40 26 -79 50 -86 55
-9 5 -12 -7 -12 -51 l0 -58 58 -37 c68 -44 144 -78 232 -104 58 -17 97 -19
360 -18 356 1 417 9 675 96 197 65 315 123 470 229 121 82 292 229 358 307 73
86 177 247 177 274 0 42 -34 60 -71 38z"/>
<path d="M2470 740 c-23 -23 -24 -29 -11 -79 5 -20 16 -85 25 -146 9 -60 23
-156 31 -213 8 -56 15 -127 15 -156 0 -29 3 -74 6 -100 l7 -46 50 0 50 0 -7
58 c-3 31 -10 107 -15 168 -6 62 -15 140 -20 175 -6 35 -17 114 -26 174 -19
126 -30 162 -56 175 -24 13 -26 13 -49 -10z"/>
</g>
</svg>
